<!-- icon666.com - MILLIONS vector ICONS FREE -->
<svg version="1.1" id="Capa_1" xmlns="http://www.w3.org/2000/svg" xmlns:xlink="http://www.w3.org/1999/xlink" x="0px" y="0px" viewBox="0 0 190.736 190.736" style="enable-background:new 0 0 190.736 190.736;" xml:space="preserve">
  <path d="M190.736,95.369c0,6.276-3.069,12.171-8.212,15.769l-42.959,30.063c-2.741,1.918-5.933,2.933-9.229,2.933h-0.001 c-8.92-0.001-16.176-7.251-16.176-16.162c0-5.266,2.575-10.211,6.89-13.23l0.414-0.29H19.083C8.561,114.452,0,105.891,0,95.368 s8.561-19.083,19.083-19.083h102.382l-0.415-0.291c-4.314-3.018-6.89-7.964-6.89-13.229c0-8.912,7.257-16.162,16.176-16.162 c3.297,0,6.488,1.014,9.229,2.933l42.959,30.064C187.667,83.198,190.736,89.093,190.736,95.369z"
        fill="#000000" style="fill: rgb(225, 173, 219); stroke: #000000; stroke-width: 2;"></path>
</svg>
